<?xml version="1.0" standalone="no"?>
<!DOCTYPE svg PUBLIC "-//W3C//DTD SVG 20010904//EN"
 "http://www.w3.org/TR/2001/REC-SVG-20010904/DTD/svg10.dtd">
<svg version="1.0" xmlns="http://www.w3.org/2000/svg"
 width="265.000000pt" height="265.000000pt" viewBox="0 0 265.000000 265.000000"
 preserveAspectRatio="xMidYMid meet">
<metadata>
Created by potrace 1.11, written by Peter Selinger 2001-2013
</metadata>
<g transform="translate(0.000000,265.000000) scale(0.100000,-0.100000)"
fill="#000000" stroke="none">
<path d="M1230 2637 c-70 -25 -130 -68 -166 -121 -26 -38 -284 -486 -284 -493
0 -3 -8 -17 -19 -31 -28 -41 -82 -142 -76 -142 3 0 -3 -10 -15 -22 -26 -28
-60 -94 -53 -102 4 -3 2 -6 -4 -6 -10 0 -65 -93 -63 -106 1 -4 -3 -10 -8 -13
-15 -10 -101 -159 -94 -165 3 -3 0 -6 -6 -6 -7 0 -12 -6 -12 -14 0 -7 -7 -19
-16 -27 -8 -7 -13 -21 -11 -31 3 -10 2 -16 -3 -13 -4 3 -13 -1 -19 -9 -9 -11
-9 -15 1 -19 9 -4 9 -6 -2 -6 -15 -1 -57 -67 -52 -83 1 -4 -2 -8 -7 -8 -13 0
-42 -60 -35 -71 3 -5 1 -9 -5 -9 -5 0 -12 -9 -15 -20 -3 -11 -9 -30 -12 -41
-5 -16 -3 -20 7 -14 11 6 12 5 2 -6 -15 -15 -18 -53 -4 -44 5 3 13 1 16 -5 4
-6 1 -9 -7 -8 -20 5 -12 -67 14 -118 20 -40 100 -140 83 -104 -4 8 2 5 12 -6
21 -25 74 -50 123 -59 59 -10 111 -11 116 -3 3 4 0 8 -5 8 -6 0 -11 6 -11 13
1 6 10 1 20 -12 12 -14 20 -18 20 -10 0 9 3 10 8 3 8 -12 82 -11 102 1 9 5 11
4 6 -3 -4 -7 -1 -12 6 -12 7 -1 89 -133 183 -296 93 -162 183 -308 199 -325
105 -107 289 -95 374 25 16 22 66 106 112 186 152 267 234 405 245 413 5 4 20
5 33 2 13 -3 22 -1 22 6 0 8 6 7 17 -2 11 -10 14 -10 9 -1 -4 6 -2 12 3 12 6
0 11 -4 11 -8 0 -4 28 -7 63 -5 110 5 122 8 120 29 -1 18 -1 18 12 1 13 -18
15 -18 52 2 64 34 87 56 79 77 -6 15 -5 16 5 7 9 -9 16 -6 31 13 11 13 21 30
22 37 1 6 5 17 8 23 4 6 12 23 18 38 8 21 7 26 -3 20 -9 -5 -9 -4 1 7 14 15
17 53 3 45 -4 -3 -17 4 -27 17 l-19 22 22 -19 c21 -17 23 -17 29 -2 3 9 4 26
1 39 -3 12 -8 33 -11 47 -8 35 -47 110 -58 110 -4 0 -7 3 -6 8 2 6 -19 48 -58
113 -6 11 -14 16 -19 11 -5 -4 -5 -2 -1 5 10 18 -15 52 -33 46 -12 -4 -13 -3
-3 4 10 8 3 26 -30 84 -23 41 -46 77 -51 80 -5 3 -9 10 -9 15 -1 22 -22 53
-32 47 -6 -3 -8 -3 -4 2 11 12 -31 87 -44 79 -6 -4 -8 -3 -4 4 6 11 -1 25 -65
135 -35 59 -41 70 -94 166 -53 94 -58 104 -174 304 -120 208 -162 261 -238
297 -56 26 -171 35 -223 17z m594 -785 c3 -5 -1 -9 -9 -9 -8 0 -12 4 -9 9 3 4
7 8 9 8 2 0 6 -4 9 -8z m-57 -77 c0 -8 -4 -15 -9 -15 -10 0 -11 14 -1 23 9 10
10 9 10 -8z m-903 -163 c3 -5 -1 -9 -9 -9 -8 0 -12 4 -9 9 3 4 7 8 9 8 2 0 6
-4 9 -8z m931 -42 c-3 -5 -12 -10 -18 -10 -7 0 -6 4 3 10 19 12 23 12 15 0z
m-345 -20 c0 -5 -5 -10 -11 -10 -5 0 -7 5 -4 10 3 6 8 10 11 10 2 0 4 -4 4
-10z m-624 -36 c1 -9 0 -13 -4 -10 -3 4 -7 14 -8 22 -1 9 0 13 4 10 3 -4 7
-14 8 -22z m378 10 c3 -8 2 -12 -4 -9 -6 3 -10 10 -10 16 0 14 7 11 14 -7z
m559 -9 c-3 -9 -8 -14 -10 -11 -3 3 -2 9 2 15 9 16 15 13 8 -4z m-118 -5 c3
-5 1 -10 -4 -10 -6 0 -11 5 -11 10 0 6 2 10 4 10 3 0 8 -4 11 -10z m65 4 c0
-8 -19 -13 -24 -6 -3 5 1 9 9 9 8 0 15 -2 15 -3z m116 -9 c-1 -8 -5 -17 -8
-21 -5 -4 -4 16 1 34 3 9 9 -1 7 -13z m120 -31 c1 -9 0 -13 -4 -10 -3 4 -7 14
-8 22 -1 9 0 13 4 10 3 -4 7 -14 8 -22z m-561 4 c5 4 5 1 1 -6 -6 -10 -11 -10
-22 -1 -8 6 -14 14 -14 16 0 3 6 0 13 -6 8 -6 18 -7 22 -3z m80 3 c3 -5 2 -12
-3 -15 -5 -3 -9 1 -9 9 0 17 3 19 12 6z m-919 -13 c3 -4 -1 -5 -10 -4 -8 1
-18 5 -22 8 -3 4 1 5 10 4 8 -1 18 -5 22 -8z m59 3 c-9 -8 -36 -10 -30 -2 2 4
11 8 20 8 8 0 13 -3 10 -6z m105 -6 c0 -2 -9 -3 -19 -2 -11 0 -18 5 -15 9 4 6
34 0 34 -7z m155 6 c-9 -8 -36 -10 -30 -2 2 4 11 8 20 8 8 0 13 -3 10 -6z
m161 -3 c3 -4 -1 -5 -10 -4 -8 1 -18 5 -22 8 -3 4 1 5 10 4 8 -1 18 -5 22 -8z
m59 3 c-9 -8 -36 -10 -30 -2 2 4 11 8 20 8 8 0 13 -3 10 -6z m101 -3 c3 -4 -1
-5 -10 -4 -8 1 -18 5 -22 8 -3 4 1 5 10 4 8 -1 18 -5 22 -8z m64 6 c0 -8 -19
-13 -24 -6 -3 5 1 9 9 9 8 0 15 -2 15 -3z m335 -3 c-9 -8 -36 -10 -30 -2 2 4
11 8 20 8 8 0 13 -3 10 -6z m329 1 c3 -5 -1 -9 -9 -9 -8 0 -12 4 -9 9 3 4 7 8
9 8 2 0 6 -4 9 -8z m152 -4 c3 -4 -1 -5 -10 -4 -8 1 -18 5 -22 8 -3 4 1 5 10
4 8 -1 18 -5 22 -8z m77 -13 c-7 -21 -12 -19 -10 4 0 11 5 18 9 15 4 -3 5 -11
1 -19z m-413 -7 c0 -4 -4 -8 -9 -8 -6 0 -12 4 -15 8 -3 5 1 9 9 9 8 0 15 -4
15 -9z m431 -11 c-10 -9 -11 -8 -5 6 3 10 9 15 12 12 3 -3 0 -11 -7 -18z
m-1576 -7 c3 -5 1 -10 -4 -10 -6 0 -11 5 -11 10 0 6 2 10 4 10 3 0 8 -4 11
-10z m165 6 c0 -3 -4 -8 -10 -11 -5 -3 -10 -1 -10 4 0 6 5 11 10 11 6 0 10 -2
10 -4z m160 -2 c0 -8 -19 -13 -24 -6 -3 5 1 9 9 9 8 0 15 -2 15 -3z m155 -5
c2 -3 -8 -5 -25 -5 -16 0 -27 3 -25 6 5 8 42 6 50 -1z m160 1 c3 -5 1 -10 -4
-10 -6 0 -11 5 -11 10 0 6 2 10 4 10 3 0 8 -4 11 -10z m125 6 c0 -3 -4 -8 -10
-11 -5 -3 -10 -1 -10 4 0 6 5 11 10 11 6 0 10 -2 10 -4z m115 -6 c3 -5 1 -10
-4 -10 -6 0 -11 5 -11 10 0 6 2 10 4 10 3 0 8 -4 11 -10z m205 0 c0 -5 -2 -10
-4 -10 -3 0 -8 5 -11 10 -3 6 -1 10 4 10 6 0 11 -4 11 -10z m120 6 c0 -3 -4
-8 -10 -11 -5 -3 -10 -1 -10 4 0 6 5 11 10 11 6 0 10 -2 10 -4z m195 -5 c3 -5
2 -12 -3 -15 -5 -3 -9 1 -9 9 0 17 3 19 12 6z m-1138 -16 c0 -8 -4 -12 -9 -9
-5 3 -6 10 -3 15 9 13 12 11 12 -6z m1001 -10 c-3 -3 -9 2 -12 12 -6 14 -5 15
5 6 7 -7 10 -15 7 -18z m47 5 c-3 -5 -12 -10 -18 -10 -7 0 -6 4 3 10 19 12 23
12 15 0z m245 4 c0 -8 -19 -13 -24 -6 -3 5 1 9 9 9 8 0 15 -2 15 -3z m-1230
-18 c0 -3 -4 -8 -10 -11 -5 -3 -10 -1 -10 4 0 6 5 11 10 11 6 0 10 -2 10 -4z
m40 -6 c0 -5 -2 -10 -4 -10 -3 0 -8 5 -11 10 -3 6 -1 10 4 10 6 0 11 -4 11
-10z m355 0 c3 -5 1 -10 -4 -10 -6 0 -11 5 -11 10 0 6 2 10 4 10 3 0 8 -4 11
-10z m40 0 c3 -5 1 -10 -4 -10 -6 0 -11 5 -11 10 0 6 2 10 4 10 3 0 8 -4 11
-10z m645 0 c0 -5 -5 -10 -11 -10 -5 0 -7 5 -4 10 3 6 8 10 11 10 2 0 4 -4 4
-10z m40 0 c0 -5 -5 -10 -11 -10 -5 0 -7 5 -4 10 3 6 8 10 11 10 2 0 4 -4 4
-10z m-1375 -20 c-3 -5 -12 -10 -18 -10 -7 0 -6 4 3 10 19 12 23 12 15 0z
m655 -20 c0 -5 -2 -10 -4 -10 -3 0 -8 5 -11 10 -3 6 -1 10 4 10 6 0 11 -4 11
-10z m640 6 c0 -3 -4 -8 -10 -11 -5 -3 -10 -1 -10 4 0 6 5 11 10 11 6 0 10 -2
10 -4z m160 -6 c0 -5 -2 -10 -4 -10 -3 0 -8 5 -11 10 -3 6 -1 10 4 10 6 0 11
-4 11 -10z m-730 -14 c0 -2 -8 -10 -17 -17 -16 -13 -17 -12 -4 4 13 16 21 21
21 13z m234 -4 c2 -4 -4 -8 -14 -8 -10 0 -16 4 -14 8 3 4 9 8 14 8 5 0 11 -4
14 -8z m227 -9 c13 -16 12 -17 -3 -4 -10 7 -18 15 -18 17 0 8 8 3 21 -13z
m130 -30 c13 -16 12 -17 -3 -4 -10 7 -18 15 -18 17 0 8 8 3 21 -13z m36 2 c0
-8 -4 -15 -9 -15 -10 0 -11 14 -1 23 9 10 10 9 10 -8z m-1262 -4 c3 -5 2 -12
-3 -15 -5 -3 -9 1 -9 9 0 17 3 19 12 6z m596 -14 c-10 -9 -11 -8 -5 6 3 10 9
15 12 12 3 -3 0 -11 -7 -18z m80 0 c-10 -9 -11 -8 -5 6 3 10 9 15 12 12 3 -3
0 -11 -7 -18z m85 11 c4 -7 4 -10 -1 -6 -4 4 -15 2 -24 -5 -14 -11 -14 -10 -2
6 16 20 18 21 27 5z m595 -11 c-10 -9 -11 -8 -5 6 3 10 9 15 12 12 3 -3 0 -11
-7 -18z m-1486 -7 c3 -6 -1 -7 -9 -4 -18 7 -21 14 -7 14 6 0 13 -4 16 -10z
m75 6 c0 -2 -7 -7 -16 -10 -8 -3 -12 -2 -9 4 6 10 25 14 25 6z m1556 -11 c-1
-8 -5 -17 -8 -21 -5 -4 -4 16 1 34 3 9 9 -1 7 -13z m-383 -10 c-3 -9 -8 -14
-10 -11 -3 3 -2 9 2 15 9 16 15 13 8 -4z m152 -5 c3 -6 -1 -7 -9 -4 -18 7 -21
14 -7 14 6 0 13 -4 16 -10z m-1485 -20 c0 -5 -5 -10 -11 -10 -5 0 -7 5 -4 10
3 6 8 10 11 10 2 0 4 -4 4 -10z m197 -5 c0 -8 -4 -12 -9 -9 -5 3 -6 10 -3 15
9 13 12 11 12 -6z m36 -10 c-7 -21 -12 -19 -10 4 0 11 5 18 9 15 4 -3 5 -11 1
-19z m1362 16 c3 -5 2 -12 -3 -15 -5 -3 -9 1 -9 9 0 17 3 19 12 6z m81 -27 c1
-9 0 -13 -4 -10 -3 4 -7 14 -8 22 -1 9 0 13 4 10 3 -4 7 -14 8 -22z m-1759 -3
c0 -11 -5 -18 -9 -15 -4 3 -5 11 -1 19 7 21 12 19 10 -4z m-38 -4 c8 -10 7
-14 -2 -14 -8 0 -14 6 -14 14 0 7 1 13 2 13 2 0 8 -6 14 -13z m1758 -2 c0 -8
-4 -12 -9 -9 -5 3 -6 10 -3 15 9 13 12 11 12 -6z m83 11 c0 -2 -8 -10 -17 -17
-16 -13 -17 -12 -4 4 13 16 21 21 21 13z m-1920 -16 c0 -5 -4 -10 -10 -10 -5
0 -10 5 -10 10 0 6 5 10 10 10 6 0 10 -4 10 -10z m276 -15 c1 -8 -5 -20 -14
-27 -15 -11 -15 -11 -6 2 6 8 10 23 8 33 -1 11 0 16 4 13 3 -4 7 -13 8 -21z
m81 10 c0 -8 -4 -12 -9 -9 -5 3 -6 10 -3 15 9 13 12 11 12 -6z m1283 7 c0 -5
-7 -9 -15 -9 -8 0 -12 4 -9 9 3 4 9 8 15 8 5 0 9 -4 9 -8z m84 0 c3 -5 -1 -9
-9 -9 -8 0 -15 4 -15 9 0 4 4 8 9 8 6 0 12 -4 15 -8z m-1687 -17 c0 -8 -4 -12
-9 -9 -5 3 -6 10 -3 15 9 13 12 11 12 -6z m1777 -4 c-7 -8 -54 -9 -49 -1 2 3
15 6 29 6 14 0 23 -2 20 -5z m126 3 c0 -8 -19 -13 -24 -6 -3 5 1 9 9 9 8 0 15
-2 15 -3z m-1736 -26 c-3 -4 -9 -8 -15 -8 -5 0 -9 4 -9 8 0 5 7 9 15 9 8 0 12
-4 9 -9z m1612 -13 c-1 -8 -5 -17 -8 -21 -5 -4 -4 16 1 34 3 9 9 -1 7 -13z
m61 2 c0 -7 -11 -13 -23 -13 -12 0 -20 4 -18 8 3 5 9 6 14 3 5 -3 11 -1 15 5
8 13 12 13 12 -3z m53 -2 c-7 -8 -17 -15 -23 -15 -6 0 -2 7 9 15 25 19 30 19
14 0z m51 -2 c13 -16 12 -17 -3 -4 -17 13 -22 21 -14 21 2 0 10 -8 17 -17z
m-1824 -13 c-2 -11 -6 -22 -9 -26 -4 -3 -5 2 -3 13 2 10 4 21 4 26 1 4 3 7 6
7 3 0 4 -9 2 -20z m188 11 c-9 -8 -36 -10 -30 -2 2 4 11 8 20 8 8 0 13 -3 10
-6z m1319 1 c3 -5 -1 -9 -9 -9 -8 0 -12 4 -9 9 3 4 7 8 9 8 2 0 6 -4 9 -8z
m366 4 c0 -2 -8 -10 -17 -17 -16 -13 -17 -12 -4 4 13 16 21 21 21 13z m-2073
-38 c2 -17 0 -19 -7 -8 -5 8 -6 18 -4 22 8 12 10 10 11 -14z m81 2 c-7 -10
-14 -17 -17 -15 -4 4 18 35 25 35 2 0 -1 -9 -8 -20z m166 12 c2 -4 -4 -8 -14
-8 -10 0 -16 4 -14 8 3 4 9 8 14 8 5 0 11 -4 14 -8z m41 -2 c-3 -5 -12 -10
-18 -10 -7 0 -6 4 3 10 19 12 23 12 15 0z m1519 -2 c-3 -4 -9 -8 -15 -8 -5 0
-9 4 -9 8 0 5 7 9 15 9 8 0 12 -4 9 -9z m-64 -2 c0 -2 -8 -10 -17 -17 -16 -13
-17 -12 -4 4 13 16 21 21 21 13z m-1623 -21 c0 -8 -4 -12 -9 -9 -5 3 -6 10 -3
15 9 13 12 11 12 -6z m1654 -2 c13 -16 12 -17 -3 -4 -17 13 -22 21 -14 21 2 0
10 -8 17 -17z m67 -4 c9 -12 9 -16 -1 -16 -7 0 -14 9 -14 20 -1 11 -1 18 0 16
2 -2 8 -11 15 -20z m-1798 -7 c0 -5 -7 -9 -15 -9 -8 0 -12 4 -9 9 3 4 9 8 15
8 5 0 9 -4 9 -8z m115 -12 c10 -11 16 -20 13 -20 -3 0 -13 9 -23 20 -10 11
-16 20 -13 20 3 0 13 -9 23 -20z m-43 -5 c3 0 9 -3 13 -7 4 -3 0 -5 -9 -4 -9
1 -22 8 -29 16 -10 10 -9 11 3 4 8 -5 18 -9 22 -9z m146 -10 c-3 -3 -9 2 -12
12 -6 14 -5 15 5 6 7 -7 10 -15 7 -18z m1620 0 c-3 -3 -9 2 -12 12 -6 14 -5
15 5 6 7 -7 10 -15 7 -18z m-1681 8 c-4 -3 -1 -13 6 -22 11 -14 10 -14 -5 -2
-21 15 -23 31 -6 31 6 0 8 -3 5 -7z m1600 -7 c2 -2 -9 -3 -26 -2 -16 0 -27 4
-25 8 4 7 43 3 51 -6z m160 8 c-8 -8 -48 -13 -43 -6 2 4 14 8 26 9 12 1 20 0
17 -3z m-1876 -21 c13 -16 12 -17 -3 -4 -10 7 -18 15 -18 17 0 8 8 3 21 -13z
m-15 -25 c12 -14 13 -18 3 -10 -9 6 -18 10 -21 7 -2 -3 -5 2 -5 10 0 19 0 19
23 -7z m87 -4 c14 -17 14 -21 2 -21 -8 0 -12 4 -9 8 2 4 0 10 -6 14 -5 3 -10
11 -10 17 0 6 1 9 3 7 1 -2 10 -13 20 -25z m42 -12 c-3 -3 3 -15 12 -26 18
-21 18 -21 -5 -2 -12 11 -20 21 -17 24 3 3 -3 15 -12 26 -18 21 -18 21 5 2 12
-11 20 -21 17 -24z m62 25 c0 -8 -6 -14 -14 -14 -9 0 -10 4 -2 14 6 7 12 13
14 13 1 0 2 -6 2 -13z m1498 -25 c-3 -3 3 -15 12 -26 18 -21 18 -21 -5 -2 -12
11 -20 21 -17 24 3 3 -3 15 -12 26 -18 21 -18 21 5 2 12 -11 20 -21 17 -24z
m92 20 c-10 -10 -15 -21 -12 -24 3 -3 -5 -13 -17 -24 l-23 -19 19 23 c11 12
15 22 11 22 -4 0 0 9 10 20 10 11 20 20 23 20 3 0 -2 -8 -11 -18z m82 2 c-7
-9 -14 -23 -15 -31 -2 -8 -5 -18 -8 -21 -4 -3 -5 4 -3 15 3 20 24 53 34 53 3
0 -1 -7 -8 -16z m83 1 c2 3 5 -2 5 -10 0 -19 0 -19 -23 7 -12 14 -13 18 -3 10
9 -6 18 -10 21 -7z m-1666 -2 c-2 -3 -6 -3 -9 -1 -3 2 -15 -6 -28 -17 l-24
-20 18 21 c9 11 24 21 32 21 8 0 13 -2 11 -4z m-220 -25 c3 -4 -1 -5 -10 -4
-8 1 -18 5 -22 8 -3 4 1 5 10 4 8 -1 18 -5 22 -8z m105 -5 c13 -16 12 -17 -3
-4 -10 7 -18 15 -18 17 0 8 8 3 21 -13z m1569 3 c-7 -7 -13 -7 -20 0 -6 6 -3
10 10 10 13 0 16 -4 10 -10z m85 5 c-9 -8 -36 -10 -30 -2 2 4 11 8 20 8 8 0
13 -3 10 -6z m75 5 c0 -2 -7 -7 -16 -10 -8 -3 -12 -2 -9 4 6 10 25 14 25 6z
m31 -13 c13 -16 12 -17 -3 -4 -17 13 -22 21 -14 21 2 0 10 -8 17 -17z m-1937
-23 c-6 -6 -10 -3 -10 10 0 13 4 16 10 10 7 -7 7 -13 0 -20z m276 15 c-7 -8
-17 -15 -23 -15 -6 0 -2 7 9 15 25 19 30 19 14 0z m1681 -18 c-10 -9 -11 -8
-5 6 3 10 9 15 12 12 3 -3 0 -11 -7 -18z m-1903 0 c-1 -2 4 -12 12 -22 14 -17
14 -17 -8 -4 -12 8 -18 15 -12 17 6 2 7 9 3 15 -3 7 -3 9 1 5 4 -3 6 -8 4 -11z
m49 -14 c0 -9 -4 -10 -14 -2 -7 6 -13 12 -13 14 0 1 6 2 13 2 8 0 14 -6 14
-14z m41 -7 c-2 -1 -12 -8 -23 -16 -18 -14 -19 -14 -7 2 8 10 10 23 6 30 -6 9
-3 9 9 -1 10 -8 16 -14 15 -15z m82 18 c0 -8 -19 -13 -24 -6 -3 5 1 9 9 9 8 0
15 -2 15 -3z m-263 -26 c0 -13 -1 -18 -4 -11 -2 7 -12 9 -21 6 -13 -4 -12 -2
3 10 11 9 20 17 20 17 1 0 1 -10 2 -22z m63 18 c0 -2 -6 -9 -14 -15 -11 -9
-16 -9 -22 0 -4 7 -3 9 4 5 6 -3 13 -2 17 4 6 10 15 14 15 6z m1819 -9 c8 -10
7 -14 -2 -14 -8 0 -14 6 -14 14 0 7 1 13 2 13 2 0 8 -6 14 -13z m151 -2 c-6
-8 -8 -20 -4 -27 5 -10 4 -10 -6 -1 -11 10 -11 15 0 28 7 8 15 15 17 15 3 0 0
-7 -7 -15z m-1697 -13 c15 -16 15 -19 2 -19 -8 0 -13 3 -10 5 3 3 0 11 -6 19
-17 20 -5 16 14 -5z m1661 2 c3 -8 2 -12 -4 -9 -6 3 -10 10 -10 16 0 14 7 11
14 -7z m-1696 -7 c8 -10 6 -13 -7 -13 -11 0 -17 6 -14 13 3 7 6 13 8 13 1 0 7
-6 13 -13z m1442 -1 c0 -2 -7 -7 -16 -10 -8 -3 -12 -2 -9 4 6 10 25 14 25 6z
m42 -19 c-2 -10 -5 -16 -6 -15 -1 2 -7 10 -13 18 -10 13 -8 16 6 16 13 0 17
-6 13 -19z m118 8 c-6 -8 -8 -20 -4 -27 5 -10 4 -10 -6 -1 -11 10 -11 15 0 28
7 8 15 15 17 15 3 0 0 -7 -7 -15z m-1883 -25 c-2 -11 -6 -22 -9 -26 -4 -3 -5
2 -3 13 2 10 4 21 4 26 1 4 3 7 6 7 3 0 4 -9 2 -20z m228 10 c3 -6 -1 -7 -9
-4 -18 7 -21 14 -7 14 6 0 13 -4 16 -10z m1735 0 c0 -5 -4 -10 -10 -10 -5 0
-10 5 -10 10 0 6 5 10 10 10 6 0 10 -4 10 -10z m-1798 -17 c-10 -4 -9 -9 4
-24 24 -27 12 -24 -14 4 l-22 23 23 1 c12 0 16 -1 9 -4z m48 2 c0 -2 -6 -8
-13 -14 -10 -8 -14 -7 -14 2 0 8 6 14 14 14 7 0 13 -1 13 -2z m35 -5 c-4 -6
-1 -19 6 -28 12 -16 12 -16 -5 0 -16 14 -15 38 0 38 3 0 2 -5 -1 -10z m-155
-15 c-6 -8 -8 -20 -4 -27 4 -7 -1 -6 -12 3 -10 9 -27 15 -37 14 -9 -2 -15 1
-12 5 3 5 16 7 30 4 13 -2 27 0 30 6 3 5 9 10 12 10 3 0 0 -7 -7 -15z m1583 2
c4 3 7 2 7 -4 0 -6 -7 -16 -15 -23 -13 -11 -14 -10 -9 5 5 11 4 16 -3 12 -5
-3 -10 0 -10 8 0 10 4 12 12 5 7 -5 15 -7 18 -3z m63 -6 c0 -11 -5 -17 -13
-14 -10 4 -11 9 -2 19 15 18 15 18 15 -5z m111 2 c-14 -14 -19 -15 -29 -4 -11
10 -10 11 3 6 10 -4 20 -2 24 4 3 6 9 11 13 11 3 0 -1 -8 -11 -17z m91 -8 c-3
-3 -9 2 -12 12 -6 14 -5 15 5 6 7 -7 10 -15 7 -18z m35 10 c-3 -9 -8 -14 -10
-11 -3 3 -2 9 2 15 9 16 15 13 8 -4z m-178 -4 c-9 -8 -36 -10 -30 -2 2 4 11 8
20 8 8 0 13 -3 10 -6z m-1598 -30 c0 -11 -5 -18 -9 -15 -4 3 -5 11 -1 19 7 21
12 19 10 -4z m1601 -1 c-7 -10 -14 -17 -17 -15 -4 4 18 35 25 35 2 0 -1 -9 -8
-20z m-1646 -2 c-6 -6 -22 -13 -34 -15 -18 -2 -19 -1 -8 6 8 5 17 8 21 5 4 -2
10 0 14 6 3 5 9 10 13 10 3 0 1 -5 -6 -12z m1615 -10 c-3 -8 -6 -5 -6 6 -1 11
2 17 5 13 3 -3 4 -12 1 -19z m168 13 c-6 -6 -26 -13 -45 -16 -19 -3 -32 -3
-28 0 3 3 18 8 34 11 16 3 31 7 33 10 2 2 7 4 10 4 3 0 1 -4 -4 -9z m-1684
-24 c-10 -9 -11 -8 -5 6 3 10 9 15 12 12 3 -3 0 -11 -7 -18z m1486 8 c0 -8 -4
-12 -9 -9 -5 3 -15 2 -21 -3 -7 -4 -4 0 6 10 23 21 24 21 24 2z m-1396 -18
c-10 -9 -11 -8 -5 6 3 10 9 15 12 12 3 -3 0 -11 -7 -18z m1594 4 c-9 -8 -36
-10 -30 -2 2 4 11 8 20 8 8 0 13 -3 10 -6z m-1858 -16 c0 -8 -4 -12 -9 -9 -5
3 -6 10 -3 15 9 13 12 11 12 -6z m139 -4 c0 -12 -4 -17 -11 -12 -5 4 -22 7
-37 6 -15 -1 -25 2 -22 6 2 4 13 6 23 4 10 -2 24 1 32 6 8 5 14 9 14 9 1 0 1
-9 1 -19z m71 13 c-3 -3 -12 -4 -19 -1 -8 3 -5 6 6 6 11 1 17 -2 13 -5z m89
-13 c0 -14 -4 -17 -12 -11 -6 6 -13 9 -15 7 -2 -1 2 4 10 11 8 6 15 12 16 12
0 0 1 -9 1 -19z m1436 4 c10 2 20 0 23 -4 2 -4 -8 -7 -23 -6 -15 1 -32 -2 -37
-6 -7 -5 -11 -1 -11 11 0 13 4 16 16 11 8 -5 23 -7 32 -6z m-1715 -17 c-3 -8
-6 -5 -6 6 -1 11 2 17 5 13 3 -3 4 -12 1 -19z m1537 14 c3 -5 -1 -9 -9 -9 -8
0 -12 4 -9 9 3 4 7 8 9 8 2 0 6 -4 9 -8z m253 -14 c-3 -8 -6 -5 -6 6 -1 11 2
17 5 13 3 -3 4 -12 1 -19z m-1572 -7 c3 -5 0 -13 -6 -17 -7 -4 -9 -3 -5 4 3 5
0 13 -6 15 -9 4 -10 6 -1 6 6 1 14 -3 18 -8z m76 -18 c-12 -20 -14 -14 -5 12
4 9 9 14 11 11 3 -2 0 -13 -6 -23z m1291 5 c-2 -10 -6 -18 -7 -18 -1 0 -5 8
-7 18 -3 11 0 19 7 19 7 0 10 -8 7 -19z m72 -18 c-5 -5 -10 3 -11 18 -1 22 0
24 9 8 6 -10 6 -22 2 -26z m-1521 15 c-3 -9 -8 -14 -10 -11 -3 3 -2 9 2 15 9
16 15 13 8 -4z m1362 -4 c-9 -8 -36 -10 -30 -2 2 4 11 8 20 8 8 0 13 -3 10 -6z"/>
</g>
</svg>
